<svg width="155" height="41" viewBox="0 0 155 41" fill="none" xmlns="http://www.w3.org/2000/svg">
<path d="M5.68457 0.5C6.31245 0.5 6.82128 1.01461 6.82129 1.64941C6.82129 2.16668 6.4834 2.60377 6.01855 2.74805V8.31641H6.73828L7.39258 5.40332C7.05192 5.20484 6.82136 4.83424 6.82129 4.4082C6.82129 3.77339 7.3311 3.25879 7.95898 3.25879C8.58672 3.25897 9.0957 3.7735 9.0957 4.4082C9.0956 5.01454 8.63085 5.50954 8.04199 5.55273L7.4209 8.31641H9.22363C10.4083 8.31641 11.3691 9.34558 11.3691 10.6152V17.626C11.3691 17.6317 11.3681 17.638 11.3672 17.6436C11.3613 17.6978 11.2649 17.7424 11.2588 17.7451C10.4139 17.7851 5.00195 17.9737 5.00195 22.1094C5.00207 26.3188 8.6069 26.7154 9.05078 30.8916L17.5889 17.7412H15.0068C13.8222 17.7412 12.8623 16.712 12.8623 15.4424V6.76465C12.8623 6.74948 12.8682 6.73444 12.8789 6.72363C12.8896 6.71297 12.904 6.70703 12.9189 6.70703H14.1455C14.1723 6.70703 14.1957 6.72649 14.2012 6.75293C14.4164 7.77874 15.2722 8.5459 16.2939 8.5459H21.7295C22.9141 8.5459 23.875 9.57509 23.875 10.8447V17.626C23.875 17.6894 23.8235 17.7412 23.7607 17.7412H20.999L12.25 31.2227C18.9057 31.0091 25.7159 30.1724 28.6494 26.707C31.6994 22.6275 32.3677 18.9738 32.4902 17.9717H27.667C26.5774 17.9716 25.6936 16.9422 25.6934 15.6729V6.99414C25.6934 6.96244 25.7196 6.93652 25.751 6.93652H26.8701C26.8974 6.93652 26.9208 6.95651 26.9258 6.9834C27.1241 8.00892 27.9116 8.77539 28.8516 8.77539H33.7246C34.8143 8.77539 35.698 9.80476 35.6982 11.0742V17.9717H35.6924C35.6612 18.6128 35.4706 20.0784 34.334 22.5693C33.5944 24.1901 32.7199 26.4704 32.2881 28.0859C31.862 29.6807 31.8202 30.8366 31.8252 31.3047H31.833V35.9023C31.833 37.1216 31.3538 38.291 30.501 39.1533C29.6481 40.0156 28.4912 40.5 27.2852 40.5H5.34375C5.28099 40.5 5.22949 40.4482 5.22949 40.3848V35.9023C5.22949 31.2239 1.36426 28.8651 1.36426 23.4883C1.36436 19.8149 4.01823 18.3168 5.16602 17.7412H2.14551C0.960867 17.7412 0 16.712 0 15.4424V6.53418C6.24008e-05 6.51918 0.00608685 6.50487 0.0166016 6.49414C0.02725 6.48337 0.0416908 6.47661 0.0566406 6.47656H1.28418C1.31072 6.47677 1.33333 6.49632 1.33887 6.52246C1.55394 7.54832 2.40996 8.31622 3.43164 8.31641H3.94824L3.32617 5.55273C2.73804 5.50881 2.27454 5.01401 2.27441 4.4082C2.27441 3.77339 2.78325 3.25879 3.41113 3.25879C4.03897 3.25885 4.54785 3.77343 4.54785 4.4082C4.54776 4.83458 4.31767 5.20595 3.97656 5.4043L4.63086 8.31641H5.35254V2.74805C4.88678 2.60434 4.54785 2.16733 4.54785 1.64941C4.54786 1.01461 5.05669 0.500005 5.68457 0.5ZM56.042 12.4443C57.2224 12.4443 58.3367 12.5792 59.3838 12.8486C60.4404 13.1181 61.3735 13.5034 62.1826 14.0039L60.8262 18.4219H60.5264L56.6133 13.9033C55.3283 13.9034 54.2859 14.1579 53.4863 14.668C52.6867 15.1685 52.2871 15.8957 52.2871 16.8486C52.2872 17.5223 52.4488 18.134 52.7725 18.6826C53.1057 19.2312 53.6485 19.7946 54.4004 20.3721C55.1525 20.9496 56.2194 21.6427 57.5996 22.4512C59.5128 23.5677 60.9219 24.7708 61.8262 26.0605C62.74 27.3407 63.1973 28.6021 63.1973 29.8438C63.1972 31.0083 62.8779 32.0385 62.2402 32.9336C61.6119 33.8287 60.7067 34.5268 59.5264 35.0273C58.3556 35.5277 56.9803 35.7783 55.4004 35.7783C52.7824 35.7783 50.5871 35.3449 48.8164 34.4785L49.9873 30.6953H50.2881L54.4717 34.334C55.9946 34.334 57.1852 34.0794 58.042 33.5693C58.908 33.0496 59.3407 32.308 59.3408 31.3457C59.3408 30.7009 59.1553 30.07 58.7842 29.4541C58.4129 28.8381 57.799 28.1832 56.9424 27.4902C56.0856 26.7972 54.924 26.0318 53.458 25.1943C51.9159 24.3088 50.7873 23.3271 50.0732 22.249C49.3688 21.171 49.0167 19.9819 49.0166 18.6826C49.0166 17.5084 49.302 16.4491 49.873 15.5059C50.4537 14.553 51.2776 13.8066 52.3438 13.2676C53.4099 12.719 54.6428 12.4444 56.042 12.4443ZM118.269 28.6016L124.966 12.8779H131.678V13.166L129.764 14.7832V33.4824L131.678 35.0557V35.3447H122.538V35.0557L125.565 33.4824V15.6504L125.723 14.7832L119.083 30.4355L120.354 32.0381L117.026 35.7783H116.74L109.472 18.624L109.286 17.7578V33.4824L112.313 35.0557V35.3447H105.945V35.0557L107.844 33.4824V14.7832L105.945 13.166V12.8779H111.6L118.269 28.6016ZM74.4062 13.166L71.4365 14.7832V22.6094H80.1758V14.7832L77.1914 13.166V12.8779H86.2305V13.166L84.374 14.7832V33.4824L86.2305 35.0557V35.3447H77.2051V35.0557L80.1758 33.4824V24.0684H71.4365V33.4824L74.4209 35.0557V35.3447H65.3525V35.0557L67.2383 33.4824V14.7832L65.3818 13.166V12.8779H74.4062V13.166ZM102.081 17.3252H101.81L99.4971 14.3359H94.4697V23.7793L101.567 22.7686L100.653 25.2373H94.4697V33.8867H99.4678L103.81 30.8545H104.095L103.552 35.3447H88.3721V35.0557L90.2715 33.4385V14.7832L88.3721 13.166V12.8779H103.724L102.081 17.3252ZM153.069 33.4824L154.797 35.0557V35.3447H145.272V35.0703L148.442 33.4824L146.828 29.5547H138.589L136.989 33.4824L140.146 35.0557V35.3447H133.677V35.0557L135.419 33.4824L141.888 17.5127L140.617 15.9248L144.144 12.4443H144.43L153.069 33.4824ZM139.146 28.1973H146.271L142.688 19.4766L139.146 28.1973Z" fill="#DC9949"/>
</svg>
