<svg width="145" height="45" viewBox="0 0 145 45" fill="none" xmlns="http://www.w3.org/2000/svg">
<path d="M6.36914 0C7.07264 0 7.64348 0.57887 7.64355 1.29297C7.64355 1.87436 7.26525 2.36557 6.74512 2.52832V8.79297H7.54883L8.28223 5.51562C7.90103 5.29216 7.64355 4.87544 7.64355 4.39648C7.64362 3.68255 8.21371 3.10378 8.91699 3.10352C9.62049 3.10352 10.1913 3.68239 10.1914 4.39648C10.1914 5.07806 9.67167 5.63406 9.0127 5.68359L8.31738 8.79297H10.335C11.6622 8.79297 12.7391 9.95072 12.7393 11.3789V19.2676C12.7392 19.2738 12.7383 19.2801 12.7373 19.2861C12.7307 19.3492 12.6152 19.4014 12.6152 19.4014C11.6684 19.4464 5.60547 19.658 5.60547 24.3105C5.60561 29.0461 9.64422 29.4923 10.1416 34.1904L19.708 19.3965H16.8154C15.4881 19.3965 14.4122 18.2388 14.4121 16.8105V7.04785C14.4121 7.03078 14.4187 7.01411 14.4307 7.00195C14.4426 6.98982 14.4588 6.98242 14.4756 6.98242H15.8506C15.8804 6.98264 15.906 7.00462 15.9121 7.03418C16.1531 8.18826 17.1121 9.05155 18.2568 9.05176H24.3477C25.675 9.05176 26.7518 10.2094 26.752 11.6377V19.2676C26.7518 19.3388 26.6942 19.3965 26.624 19.3965H23.5303L13.7266 34.5625C21.1843 34.3222 28.8147 33.3811 32.1016 29.4824C35.5194 24.8925 36.2681 20.7821 36.4053 19.6553H31.001C29.78 19.6553 28.7902 18.4975 28.79 17.0693V7.30566C28.7902 7.27014 28.8185 7.24121 28.8535 7.24121H30.1084C30.1388 7.24144 30.1643 7.26384 30.1699 7.29395C30.3921 8.44765 31.2749 9.31055 32.3281 9.31055H37.7891C39.01 9.3108 40 10.4683 40 11.8965V19.6553H39.9932C39.9582 20.3763 39.7453 22.0247 38.4717 24.8271C37.6429 26.6506 36.6616 29.2166 36.1777 31.0342C35.7003 32.8282 35.6546 34.1287 35.6602 34.6553H35.6689V39.8271C35.6689 41.1989 35.1314 42.5153 34.1758 43.4854C33.2202 44.4551 31.9243 45 30.5732 45H5.9873C5.91699 45 5.85938 44.9415 5.85938 44.8701V39.8271C5.85918 34.5643 1.52846 31.9108 1.52832 25.8623C1.52832 21.7297 4.50191 20.0441 5.78809 19.3965H2.40332C1.07612 19.3963 0.000120639 18.2387 0 16.8105V6.78906C0 6.77204 0.00664556 6.75531 0.0185547 6.74316C0.0304771 6.73106 0.0467389 6.72467 0.0634766 6.72461H1.43848C1.46849 6.72461 1.49482 6.74572 1.50098 6.77539C1.74199 7.92961 2.70074 8.79297 3.8457 8.79297H4.42285L3.72559 5.68359C3.06717 5.63348 2.54785 5.07765 2.54785 4.39648C2.54792 3.68239 3.11876 3.10352 3.82227 3.10352C4.52565 3.10366 5.09563 3.68247 5.0957 4.39648C5.0957 4.87551 4.83832 5.29218 4.45703 5.51562L5.19043 8.79297H5.99512V2.5293C5.47434 2.36694 5.0957 1.87483 5.0957 1.29297C5.09577 0.57902 5.66584 0.000243268 6.36914 0ZM56.6992 37.5C56.9454 37.5 57.1624 37.5435 57.3506 37.6299C57.5399 37.7163 57.689 37.8349 57.7979 37.9863C57.9067 38.1367 57.964 38.3096 57.9688 38.5049H57.4395C57.4205 38.3368 57.3424 38.2066 57.2051 38.1143C57.0678 38.0208 56.8948 37.9736 56.6865 37.9736C56.5375 37.9736 56.4086 37.9977 56.2998 38.0449C56.1909 38.0911 56.1063 38.1556 56.0459 38.2373C55.9869 38.3177 55.9571 38.4089 55.957 38.5117C55.957 38.5981 55.9774 38.6726 56.0176 38.7354C56.059 38.798 56.1125 38.851 56.1787 38.8936C56.2462 38.935 56.3186 38.9706 56.3955 38.999C56.4723 39.0262 56.5463 39.0487 56.6172 39.0664L56.9727 39.1582C57.0885 39.1866 57.2073 39.225 57.3291 39.2734C57.451 39.322 57.5648 39.3865 57.6689 39.4658C57.7729 39.5451 57.8571 39.6437 57.9209 39.7607C57.9858 39.8777 58.0185 40.0177 58.0186 40.1807C58.0186 40.3866 57.9649 40.5697 57.8584 40.7295C57.753 40.8893 57.5997 41.0161 57.3984 41.1084C57.1986 41.2006 56.9566 41.246 56.6729 41.2461C56.4007 41.2461 56.1646 41.2035 55.9658 41.1172C55.767 41.0308 55.6115 40.9076 55.499 40.749C55.3866 40.5892 55.3243 40.3996 55.3125 40.1807H55.8623C55.873 40.312 55.9157 40.4222 55.9902 40.5098C56.066 40.5962 56.1631 40.6605 56.2803 40.7031C56.3986 40.7445 56.5282 40.7656 56.6689 40.7656C56.824 40.7656 56.9623 40.7409 57.083 40.6924C57.2047 40.6427 57.3004 40.5738 57.3701 40.4863C57.4399 40.3976 57.4746 40.2941 57.4746 40.1758C57.4746 40.0681 57.4443 39.9798 57.3828 39.9111C57.3225 39.8425 57.2399 39.7862 57.1357 39.7412C57.0328 39.6962 56.9163 39.6564 56.7861 39.6221L56.3564 39.5049C56.0654 39.4256 55.8345 39.309 55.6641 39.1553C55.4948 39.0014 55.4102 38.7973 55.4102 38.5439C55.4102 38.3345 55.4665 38.1514 55.5801 37.9951C55.6937 37.8389 55.848 37.7182 56.042 37.6318C56.2361 37.5442 56.4554 37.5 56.6992 37.5ZM104.341 37.5C104.587 37.5 104.804 37.5435 104.992 37.6299C105.181 37.7163 105.331 37.8349 105.439 37.9863C105.548 38.1367 105.606 38.3096 105.61 38.5049H105.081C105.062 38.3368 104.984 38.2066 104.847 38.1143C104.709 38.0208 104.536 37.9736 104.328 37.9736C104.179 37.9736 104.05 37.9977 103.941 38.0449C103.833 38.0911 103.748 38.1556 103.688 38.2373C103.628 38.3177 103.599 38.4089 103.599 38.5117C103.599 38.5981 103.619 38.6726 103.659 38.7354C103.701 38.798 103.754 38.851 103.82 38.8936C103.888 38.935 103.96 38.9706 104.037 38.999C104.114 39.0262 104.188 39.0487 104.259 39.0664L104.614 39.1582C104.73 39.1866 104.849 39.225 104.971 39.2734C105.093 39.322 105.206 39.3865 105.311 39.4658C105.415 39.5451 105.499 39.6437 105.562 39.7607C105.627 39.8777 105.66 40.0177 105.66 40.1807C105.66 40.3866 105.606 40.5697 105.5 40.7295C105.395 40.8893 105.241 41.0161 105.04 41.1084C104.84 41.2006 104.598 41.246 104.314 41.2461C104.042 41.2461 103.806 41.2035 103.607 41.1172C103.409 41.0308 103.253 40.9076 103.141 40.749C103.028 40.5892 102.966 40.3996 102.954 40.1807H103.504C103.515 40.312 103.557 40.4222 103.632 40.5098C103.708 40.5962 103.805 40.6605 103.922 40.7031C104.04 40.7445 104.17 40.7656 104.311 40.7656C104.466 40.7656 104.604 40.7409 104.725 40.6924C104.846 40.6427 104.942 40.5738 105.012 40.4863C105.082 40.3976 105.116 40.2941 105.116 40.1758C105.116 40.0681 105.086 39.9798 105.024 39.9111C104.964 39.8425 104.881 39.7862 104.777 39.7412C104.674 39.6962 104.558 39.6564 104.428 39.6221L103.998 39.5049C103.707 39.4256 103.476 39.309 103.306 39.1553C103.136 39.0014 103.052 38.7973 103.052 38.5439C103.052 38.3345 103.108 38.1514 103.222 37.9951C103.335 37.8389 103.49 37.7182 103.684 37.6318C103.878 37.5442 104.097 37.5 104.341 37.5ZM120.889 37.5C121.135 37.5 121.352 37.5435 121.54 37.6299C121.729 37.7163 121.878 37.8349 121.987 37.9863C122.096 38.1367 122.153 38.3096 122.158 38.5049H121.629C121.61 38.3368 121.532 38.2066 121.395 38.1143C121.257 38.0208 121.084 37.9736 120.876 37.9736C120.727 37.9736 120.598 37.9977 120.489 38.0449C120.38 38.0911 120.296 38.1556 120.235 38.2373C120.176 38.3177 120.147 38.4089 120.146 38.5117C120.146 38.5981 120.167 38.6726 120.207 38.7354C120.248 38.798 120.302 38.851 120.368 38.8936C120.436 38.935 120.508 38.9706 120.585 38.999C120.662 39.0262 120.736 39.0487 120.807 39.0664L121.162 39.1582C121.278 39.1866 121.397 39.225 121.519 39.2734C121.64 39.322 121.754 39.3865 121.858 39.4658C121.962 39.5451 122.047 39.6437 122.11 39.7607C122.175 39.8777 122.208 40.0177 122.208 40.1807C122.208 40.3866 122.154 40.5697 122.048 40.7295C121.943 40.8893 121.789 41.0161 121.588 41.1084C121.388 41.2006 121.146 41.246 120.862 41.2461C120.59 41.2461 120.354 41.2035 120.155 41.1172C119.956 41.0308 119.801 40.9076 119.688 40.749C119.576 40.5892 119.514 40.3996 119.502 40.1807H120.052C120.062 40.312 120.105 40.4222 120.18 40.5098C120.255 40.5962 120.353 40.6605 120.47 40.7031C120.588 40.7445 120.718 40.7656 120.858 40.7656C121.013 40.7656 121.152 40.7409 121.272 40.6924C121.394 40.6427 121.49 40.5738 121.56 40.4863C121.629 40.3976 121.664 40.2941 121.664 40.1758C121.664 40.0681 121.634 39.9798 121.572 39.9111C121.512 39.8425 121.429 39.7862 121.325 39.7412C121.222 39.6962 121.106 39.6564 120.976 39.6221L120.546 39.5049C120.255 39.4256 120.024 39.309 119.854 39.1553C119.684 39.0014 119.6 38.7973 119.6 38.5439C119.6 38.3345 119.656 38.1514 119.77 37.9951C119.883 37.8389 120.037 37.7182 120.231 37.6318C120.426 37.5442 120.645 37.5 120.889 37.5ZM143.149 37.5C143.396 37.5 143.613 37.5435 143.801 37.6299C143.99 37.7163 144.139 37.8349 144.248 37.9863C144.357 38.1367 144.414 38.3096 144.419 38.5049H143.89C143.871 38.3368 143.793 38.2066 143.655 38.1143C143.518 38.0208 143.345 37.9736 143.137 37.9736C142.988 37.9736 142.859 37.9977 142.75 38.0449C142.641 38.0911 142.556 38.1556 142.496 38.2373C142.437 38.3177 142.407 38.4089 142.407 38.5117C142.407 38.5981 142.428 38.6726 142.468 38.7354C142.509 38.798 142.563 38.851 142.629 38.8936C142.696 38.935 142.769 38.9706 142.846 38.999C142.923 39.0262 142.996 39.0487 143.067 39.0664L143.423 39.1582C143.539 39.1866 143.658 39.225 143.779 39.2734C143.901 39.322 144.015 39.3865 144.119 39.4658C144.223 39.5451 144.307 39.6437 144.371 39.7607C144.436 39.8777 144.469 40.0177 144.469 40.1807C144.469 40.3866 144.415 40.5697 144.309 40.7295C144.203 40.8893 144.05 41.0161 143.849 41.1084C143.649 41.2006 143.407 41.246 143.123 41.2461C142.851 41.2461 142.615 41.2035 142.416 41.1172C142.217 41.0308 142.062 40.9076 141.949 40.749C141.837 40.5892 141.775 40.3996 141.763 40.1807H142.312C142.323 40.312 142.366 40.4222 142.44 40.5098C142.516 40.5962 142.613 40.6605 142.73 40.7031C142.849 40.7445 142.978 40.7656 143.119 40.7656C143.274 40.7656 143.412 40.7409 143.533 40.6924C143.655 40.6427 143.751 40.5738 143.82 40.4863C143.89 40.3976 143.925 40.2941 143.925 40.1758C143.925 40.0681 143.895 39.9798 143.833 39.9111C143.773 39.8425 143.69 39.7862 143.586 39.7412C143.483 39.6962 143.366 39.6564 143.236 39.6221L142.807 39.5049C142.516 39.4256 142.285 39.309 142.114 39.1553C141.945 39.0014 141.86 38.7973 141.86 38.5439C141.86 38.3345 141.917 38.1514 142.03 37.9951C142.144 37.8389 142.298 37.7182 142.492 37.6318C142.686 37.5442 142.906 37.5 143.149 37.5ZM60.1924 37.5C60.385 37.5 60.5648 37.5275 60.7314 37.583C60.8995 37.6375 61.0508 37.7187 61.1846 37.8252C61.3183 37.9305 61.429 38.0593 61.5166 38.2119C61.6042 38.3634 61.6636 38.5371 61.6943 38.7324H61.1406C61.1193 38.6142 61.0794 38.5098 61.0215 38.4199C60.9635 38.33 60.8926 38.2531 60.8086 38.1904C60.7245 38.1277 60.6296 38.0808 60.5254 38.0488C60.4225 38.0169 60.3131 38.001 60.1973 38.001C59.9878 38.001 59.8005 38.0538 59.6348 38.1592C59.4703 38.2645 59.34 38.4186 59.2441 38.6221C59.1494 38.8257 59.1016 39.0746 59.1016 39.3682C59.1016 39.664 59.1495 39.9137 59.2441 40.1172C59.34 40.3207 59.471 40.475 59.6367 40.5791C59.8023 40.683 59.9885 40.7353 60.1953 40.7354C60.3101 40.7354 60.4195 40.7193 60.5225 40.6885C60.6265 40.6565 60.7207 40.6103 60.8047 40.5488C60.8887 40.4873 60.9596 40.412 61.0176 40.3232C61.0767 40.2334 61.1181 40.1305 61.1406 40.0146L61.6943 40.0156C61.6647 40.1944 61.6067 40.3594 61.5215 40.5098C61.4375 40.6587 61.3296 40.7877 61.1973 40.8965C61.0659 41.0042 60.9154 41.0883 60.7461 41.1475C60.5769 41.2066 60.3923 41.2353 60.1924 41.2354C59.8775 41.2354 59.5968 41.1609 59.3506 41.0117C59.1044 40.8614 58.9096 40.6465 58.7676 40.3672C58.6269 40.088 58.5567 39.7549 58.5566 39.3682C58.5566 38.9799 58.6275 38.6463 58.7695 38.3682C58.9116 38.0888 59.1063 37.8747 59.3525 37.7256C59.5987 37.5753 59.8788 37.5 60.1924 37.5ZM63.8721 37.5C64.1857 37.5 64.4657 37.5753 64.7119 37.7256C64.9592 37.8747 65.1539 38.0889 65.2959 38.3682C65.4379 38.6463 65.5098 38.9799 65.5098 39.3682C65.5097 39.7563 65.4379 40.0899 65.2959 40.3691C65.1539 40.6473 64.9593 40.8614 64.7119 41.0117C64.4657 41.1608 64.1857 41.2354 63.8721 41.2354C63.5574 41.2353 63.2766 41.1608 63.0293 41.0117C62.7831 40.8614 62.5883 40.6465 62.4463 40.3672C62.3044 40.088 62.2334 39.7549 62.2334 39.3682C62.2334 38.9799 62.3043 38.6463 62.4463 38.3682C62.5883 38.0888 62.7831 37.8747 63.0293 37.7256C63.2766 37.5754 63.5574 37.5 63.8721 37.5ZM109.599 40.1279C109.599 40.3611 109.553 40.5609 109.461 40.7266C109.37 40.8922 109.241 41.0189 109.075 41.1064C108.91 41.1928 108.715 41.2353 108.493 41.2354C108.288 41.2354 108.104 41.1986 107.94 41.124C107.778 41.0495 107.65 40.9408 107.556 40.7988C107.462 40.6557 107.415 40.482 107.415 40.2773H107.96C107.96 40.3778 107.983 40.4648 108.029 40.5381C108.077 40.6114 108.141 40.6686 108.223 40.71C108.305 40.7502 108.4 40.7705 108.507 40.7705C108.623 40.7705 108.721 40.7467 108.802 40.6982C108.883 40.6485 108.946 40.5753 108.988 40.4795C109.031 40.3836 109.052 40.2664 109.052 40.1279V37.5498H109.599V40.1279ZM132.642 37.5C132.955 37.5 133.235 37.5753 133.481 37.7256C133.729 37.8747 133.923 38.0889 134.065 38.3682C134.207 38.6463 134.279 38.9799 134.279 39.3682C134.279 39.7563 134.207 40.0899 134.065 40.3691C133.923 40.6473 133.729 40.8614 133.481 41.0117C133.235 41.1608 132.955 41.2354 132.642 41.2354C132.327 41.2353 132.046 41.1608 131.799 41.0117C131.553 40.8614 131.358 40.6465 131.216 40.3672C131.074 40.088 131.003 39.7549 131.003 39.3682C131.003 38.9799 131.074 38.6463 131.216 38.3682C131.358 38.0888 131.553 37.8747 131.799 37.7256C132.046 37.5754 132.327 37.5 132.642 37.5ZM136.484 37.5C136.798 37.5 137.078 37.5753 137.324 37.7256C137.572 37.8747 137.766 38.0889 137.908 38.3682C138.05 38.6463 138.122 38.9799 138.122 39.3682C138.122 39.7563 138.05 40.0899 137.908 40.3691C137.766 40.6473 137.572 40.8614 137.324 41.0117C137.078 41.1608 136.798 41.2354 136.484 41.2354C136.17 41.2353 135.889 41.1608 135.642 41.0117C135.395 40.8614 135.201 40.6465 135.059 40.3672C134.917 40.088 134.846 39.7549 134.846 39.3682C134.846 38.9799 134.917 38.6463 135.059 38.3682C135.201 38.0888 135.395 37.8747 135.642 37.7256C135.889 37.5754 136.17 37.5 136.484 37.5ZM51.7148 37.5498C52.071 37.5498 52.3772 37.623 52.6328 37.7686C52.8883 37.913 53.0846 38.1207 53.2207 38.3916C53.3578 38.6614 53.4258 38.985 53.4258 39.3623C53.4258 39.741 53.3571 40.0667 53.2188 40.3389C53.0815 40.6111 52.8825 40.821 52.6221 40.9678C52.3618 41.1133 52.0469 41.1865 51.6777 41.1865H50.5V37.5498H51.7148ZM54.6572 41.1865H54.1084V37.5498H54.6572V41.1865ZM67.3428 40.5117H67.3838L68.3955 37.5498H68.9883L67.6797 41.1865H67.0459L65.7373 37.5498H66.3311L67.3428 40.5117ZM71.7939 38.0225H70.0625V39.1299H71.6748V39.6006H70.0625V40.7139H71.8145V41.1865H69.5137V37.5498H71.7939V38.0225ZM73.8223 37.5498C74.104 37.5498 74.3386 37.5982 74.5244 37.6953C74.7113 37.7924 74.8511 37.9271 74.9434 38.0986C75.0355 38.269 75.081 38.466 75.0811 38.6895C75.0811 38.912 75.0349 39.1081 74.9414 39.2773C74.8491 39.4454 74.7094 39.5764 74.5225 39.6699C74.488 39.6873 74.4509 39.7007 74.4131 39.7148L75.2197 41.1865H74.5947L73.8545 39.8076C73.8435 39.8078 73.8324 39.8096 73.8213 39.8096H73.0752V41.1865H72.5264V37.5498H73.8223ZM79.707 38.0225H78.5723V41.1865H78.0254V38.0225H76.8926V37.5498H79.707V38.0225ZM80.8779 39.1299H82.6904V37.5498H83.2412V41.1865H82.6904V39.6006H80.8779V41.1865H80.3291V37.5498H80.8779V39.1299ZM86.3203 38.0225H84.5889V39.1299H86.2012V39.6006H84.5889V40.7139H86.3408V41.1865H84.04V37.5498H86.3203V38.0225ZM89.708 37.5498C89.9659 37.5498 90.1794 37.5925 90.3486 37.6777C90.5179 37.7618 90.6445 37.8761 90.7285 38.0205C90.8125 38.1637 90.8545 38.325 90.8545 38.5049C90.8545 38.6564 90.8271 38.7845 90.7715 38.8887C90.7159 38.9915 90.6412 39.074 90.5479 39.1367C90.4555 39.1983 90.3535 39.2441 90.2422 39.2725V39.3076C90.3629 39.3135 90.4809 39.3526 90.5957 39.4248C90.7116 39.4958 90.8071 39.5972 90.8828 39.7285C90.9586 39.8599 90.9971 40.0198 90.9971 40.208C90.997 40.3936 90.9527 40.5602 90.8652 40.708C90.7788 40.8548 90.645 40.9722 90.4639 41.0586C90.2828 41.1437 90.0511 41.1865 89.7695 41.1865H88.376V37.5498H89.708ZM92.1963 41.1865H91.6475V37.5498H92.1963V41.1865ZM94.3271 37.5498C94.5851 37.5498 94.7986 37.5925 94.9678 37.6777C95.137 37.7618 95.2636 37.8761 95.3477 38.0205C95.4316 38.1637 95.4736 38.325 95.4736 38.5049C95.4736 38.6564 95.4463 38.7845 95.3906 38.8887C95.3351 38.9915 95.2603 39.074 95.167 39.1367C95.0747 39.1983 94.9726 39.2441 94.8613 39.2725V39.3076C94.9821 39.3135 95.1 39.3526 95.2148 39.4248C95.3308 39.4958 95.4262 39.5972 95.502 39.7285C95.5777 39.8599 95.6162 40.0198 95.6162 40.208C95.6162 40.3936 95.5718 40.5602 95.4844 40.708C95.398 40.8548 95.2641 40.9722 95.083 41.0586C94.902 41.1437 94.6702 41.1865 94.3887 41.1865H92.9951V37.5498H94.3271ZM96.8154 40.7139H98.4629V41.1865H96.2666V37.5498H96.8154V40.7139ZM101.369 38.0225H99.6377V39.1299H101.25V39.6006H99.6377V40.7139H101.39V41.1865H99.0889V37.5498H101.369V38.0225ZM112.678 38.0225H110.946V39.1299H112.559V39.6006H110.946V40.7139H112.698V41.1865H110.397V37.5498H112.678V38.0225ZM114.399 40.3662H114.433L115.17 37.5498H115.741L116.479 40.3672H116.512L117.219 37.5498H117.798L116.787 41.1865H116.235L115.47 38.4619H115.441L114.676 41.1865H114.122L113.113 37.5498H113.69L114.399 40.3662ZM118.847 41.1865H118.298V37.5498H118.847V41.1865ZM123.412 39.1299H125.225V37.5498H125.775V41.1865H125.225V39.6006H123.412V41.1865H122.863V37.5498H123.412V39.1299ZM129.193 37.5498C129.475 37.5498 129.71 37.5982 129.896 37.6953C130.082 37.7924 130.222 37.9271 130.314 38.0986C130.407 38.269 130.452 38.466 130.452 38.6895C130.452 38.912 130.406 39.1081 130.312 39.2773C130.22 39.4454 130.081 39.5764 129.894 39.6699C129.859 39.6873 129.822 39.7007 129.784 39.7148L130.591 41.1865H129.966L129.226 39.8076C129.215 39.8078 129.204 39.8096 129.192 39.8096H128.446V41.1865H127.897V37.5498H129.193ZM141.284 38.0225H140.149V41.1865H139.603V38.0225H138.47V37.5498H141.284V38.0225ZM63.8721 38.001C63.6627 38.001 63.476 38.0539 63.3115 38.1592C63.1471 38.2633 63.0168 38.4167 62.9209 38.6201C62.8262 38.8225 62.7783 39.0722 62.7783 39.3682C62.7784 39.664 62.8262 39.9137 62.9209 40.1172C63.0168 40.3195 63.147 40.4738 63.3115 40.5791C63.4759 40.6831 63.6628 40.7353 63.8721 40.7354C64.0803 40.7354 64.2671 40.6832 64.4316 40.5791C64.5974 40.4738 64.7276 40.3196 64.8223 40.1172C64.9181 39.9137 64.9658 39.664 64.9658 39.3682C64.9658 39.0722 64.9181 38.8225 64.8223 38.6201C64.7276 38.4167 64.5972 38.2633 64.4316 38.1592C64.2671 38.0538 64.0804 38.001 63.8721 38.001ZM132.642 38.001C132.432 38.001 132.246 38.0539 132.081 38.1592C131.917 38.2633 131.786 38.4167 131.69 38.6201C131.596 38.8225 131.548 39.0722 131.548 39.3682C131.548 39.664 131.596 39.9137 131.69 40.1172C131.786 40.3195 131.917 40.4738 132.081 40.5791C132.245 40.6831 132.432 40.7353 132.642 40.7354C132.85 40.7354 133.037 40.6832 133.201 40.5791C133.367 40.4738 133.497 40.3196 133.592 40.1172C133.688 39.9137 133.735 39.664 133.735 39.3682C133.735 39.0722 133.688 38.8225 133.592 38.6201C133.497 38.4167 133.367 38.2633 133.201 38.1592C133.037 38.0538 132.85 38.001 132.642 38.001ZM136.484 38.001C136.275 38.001 136.088 38.0539 135.924 38.1592C135.759 38.2633 135.629 38.4167 135.533 38.6201C135.439 38.8225 135.391 39.0722 135.391 39.3682C135.391 39.664 135.439 39.9137 135.533 40.1172C135.629 40.3195 135.759 40.4738 135.924 40.5791C136.088 40.6831 136.275 40.7353 136.484 40.7354C136.693 40.7354 136.879 40.6832 137.044 40.5791C137.21 40.4738 137.34 40.3196 137.435 40.1172C137.53 39.9137 137.578 39.664 137.578 39.3682C137.578 39.0722 137.53 38.8225 137.435 38.6201C137.34 38.4167 137.21 38.2633 137.044 38.1592C136.879 38.0538 136.693 38.001 136.484 38.001ZM88.9248 40.7158H89.7168C89.9795 40.7158 90.1676 40.6643 90.2812 40.5625C90.3948 40.4607 90.4521 40.3333 90.4521 40.1807C90.4521 40.066 90.4222 39.961 90.3643 39.8652C90.3063 39.7694 90.2239 39.6926 90.1162 39.6357C90.0097 39.579 89.883 39.5508 89.7363 39.5508H88.9248V40.7158ZM93.5439 40.7158H94.3359C94.5986 40.7158 94.7868 40.6643 94.9004 40.5625C95.0139 40.4607 95.0713 40.3333 95.0713 40.1807C95.0712 40.066 95.0413 39.961 94.9834 39.8652C94.9254 39.7694 94.8431 39.6926 94.7354 39.6357C94.6289 39.579 94.5022 39.5508 94.3555 39.5508H93.5439V40.7158ZM51.0488 40.707H51.6475C51.9242 40.707 52.1545 40.6549 52.3379 40.5508C52.5214 40.4454 52.6589 40.2926 52.75 40.0938C52.841 39.8938 52.8867 39.6498 52.8867 39.3623C52.8867 39.0773 52.841 38.8354 52.75 38.6367C52.66 38.4379 52.5254 38.2866 52.3467 38.1836C52.1679 38.0806 51.9458 38.0293 51.6807 38.0293H51.0488V40.707ZM128.446 39.3379H129.143C129.32 39.3379 129.464 39.3125 129.575 39.2617C129.688 39.2108 129.77 39.1361 129.822 39.0391C129.874 38.942 129.9 38.8255 129.9 38.6895C129.9 38.5523 129.874 38.4336 129.82 38.333C129.768 38.2324 129.686 38.1548 129.573 38.1016C129.462 38.0473 129.316 38.0205 129.135 38.0205H128.446V39.3379ZM73.0752 39.3379H73.7715C73.9487 39.3379 74.093 39.3125 74.2041 39.2617C74.3166 39.2108 74.3991 39.1361 74.4512 39.0391C74.5032 38.942 74.5293 38.8255 74.5293 38.6895C74.5293 38.5523 74.5024 38.4336 74.4492 38.333C74.3971 38.2324 74.3146 38.1548 74.2021 38.1016C74.0909 38.0473 73.9445 38.0205 73.7637 38.0205H73.0752V39.3379ZM88.9248 39.123H89.6602C89.7831 39.123 89.894 39.0991 89.9922 39.0518C90.0915 39.0044 90.1696 38.9377 90.2275 38.8525C90.2866 38.7662 90.3164 38.6649 90.3164 38.5479C90.3164 38.3975 90.2645 38.2707 90.1592 38.1689C90.0538 38.0671 89.8916 38.0166 89.6738 38.0166H88.9248V39.123ZM93.5439 39.123H94.2793C94.4023 39.123 94.5132 39.0991 94.6113 39.0518C94.7106 39.0044 94.7887 38.9377 94.8467 38.8525C94.9058 38.7662 94.9355 38.6649 94.9355 38.5479C94.9355 38.3975 94.8837 38.2707 94.7783 38.1689C94.673 38.0671 94.5108 38.0166 94.293 38.0166H93.5439V39.123ZM102.516 37.8906C102.516 37.9911 102.497 38.0969 102.459 38.208C102.422 38.3181 102.37 38.4246 102.303 38.5264C102.235 38.6282 102.156 38.7157 102.064 38.7891L101.802 38.6006C101.871 38.499 101.932 38.3909 101.982 38.2764C102.035 38.1615 102.061 38.034 102.061 37.8955V37.5498H102.516V37.8906ZM56.4775 13C57.5355 13 58.5341 13.1217 59.4727 13.3643C60.4197 13.6068 61.2562 13.9529 61.9814 14.4033L60.7656 18.3799H60.4961L56.9893 14.3125C55.8373 14.3125 54.9023 14.5419 54.1855 15.001C53.4689 15.4515 53.1104 16.1063 53.1104 16.9639C53.1104 17.5702 53.2558 18.1205 53.5459 18.6143C53.8446 19.108 54.3309 19.6151 55.0049 20.1348C55.679 20.6545 56.6358 21.2782 57.873 22.0059C59.5881 23.0107 60.8505 24.0941 61.6611 25.2549C62.4802 26.407 62.8906 27.5417 62.8906 28.6592C62.8906 29.7073 62.6039 30.6348 62.0322 31.4404C61.469 32.2458 60.6585 32.8738 59.6006 33.3242C58.551 33.7747 57.3178 34 55.9014 34C53.5546 34 51.5873 33.6098 50 32.8301L51.0498 29.4258H51.3184L55.0693 32.7002C56.4344 32.7002 57.5016 32.4707 58.2695 32.0117C59.0457 31.544 59.4345 30.8768 59.4346 30.0107C59.4346 29.4304 59.2673 28.863 58.9346 28.3086C58.6018 27.7543 58.052 27.1646 57.2842 26.541C56.5162 25.9173 55.4743 25.2283 54.1602 24.4746C52.7779 23.6777 51.766 22.7944 51.126 21.8242C50.4946 20.854 50.1798 19.7837 50.1797 18.6143C50.1797 17.5574 50.4353 16.6039 50.9473 15.7549C51.4678 14.8973 52.2064 14.2263 53.1621 13.7412C54.1178 13.2474 55.2232 13 56.4775 13ZM112.256 27.542L118.26 13.3896H124.276V13.6494L122.561 15.1055V31.9336L124.276 33.3506V33.6104H116.084V33.3506L118.798 31.9336V15.8848L118.938 15.1055L112.986 29.1914L114.125 30.6348L111.143 34H110.887L104.371 18.5615L104.205 17.7822V31.9336L106.919 33.3506V33.6104H101.21V33.3506L102.912 31.9336V15.1055L101.21 13.6494V13.3896H106.278L112.256 27.542ZM72.9385 13.6494L70.2764 15.1055V22.1484H78.1104V15.1055L75.4346 13.6494V13.3896H83.5371V13.6494L81.873 15.1055V31.9336L83.5371 33.3506V33.6104H75.4473V33.3506L78.1104 31.9336V23.4609H70.2764V31.9336L72.9512 33.3506V33.6104H64.8232V33.3506L66.5127 31.9336V15.1055L64.8486 13.6494V13.3896H72.9385V13.6494ZM97.7461 17.3926H97.5029L95.4297 14.7021H90.9238V23.2012L97.2852 22.292L96.4658 24.5137H90.9238V32.2979H95.4033L99.2949 29.5693H99.5508L99.0645 33.6104H85.457V33.3506L87.1602 31.8945V15.1055L85.457 13.6494V13.3896H99.2188L97.7461 17.3926ZM143.451 31.9336L145 33.3506V33.6104H136.462V33.3633L139.304 31.9336L137.857 28.3994H130.472L129.038 31.9336L131.866 33.3506V33.6104H126.068V33.3506L127.63 31.9336L133.429 17.5615L132.289 16.1318L135.451 13H135.707L143.451 31.9336ZM130.971 27.1777H137.358L134.146 19.3291L130.971 27.1777Z" fill="#D9A56C"/>
</svg>
