<svg width="512" height="512" viewBox="0 0 512 512" fill="none" xmlns="http://www.w3.org/2000/svg">
<path d="M100.218 0C108.255 0 114.771 6.5873 114.771 14.7129C114.771 21.3328 110.446 26.9308 104.498 28.7783V100.045H113.721L122.096 62.7861C117.728 60.247 114.787 55.4819 114.787 50.0225C114.787 41.8971 121.303 35.3105 129.339 35.3105C137.376 35.3106 143.891 41.8971 143.891 50.0225C143.891 57.783 137.948 64.1398 130.413 64.6953L122.467 100.045H145.547C160.717 100.045 173.017 113.218 173.017 129.47V219.218C173.017 219.291 173.011 219.365 173 219.436C172.924 220.145 171.633 220.728 171.605 220.741C160.785 221.253 91.4899 223.661 91.4897 276.597C91.4897 330.48 137.646 335.557 143.33 389.014L252.667 220.688H219.604C204.434 220.688 192.135 207.515 192.135 191.264V80.1826C192.135 79.9885 192.21 79.8004 192.347 79.6621C192.484 79.5238 192.671 79.4473 192.863 79.4473H208.575C208.918 79.4475 209.215 79.6942 209.285 80.0322C212.039 93.1646 222.999 102.987 236.083 102.987H305.691C320.861 102.987 333.16 116.161 333.16 132.413V219.218C333.159 220.03 332.507 220.688 331.704 220.688H296.341L184.302 393.248C269.533 390.514 356.741 379.806 394.305 335.447C433.368 283.22 441.926 236.449 443.493 223.631H381.724C367.768 223.631 356.454 210.458 356.454 194.206V83.125C356.454 82.7191 356.779 82.3897 357.181 82.3896H371.518C371.867 82.3896 372.168 82.643 372.232 82.9873C374.771 96.1137 384.851 105.93 396.888 105.93H459.297C473.253 105.93 484.568 119.104 484.568 135.355V223.631H484.492C484.093 231.835 481.657 250.591 467.098 282.482C457.626 303.23 446.421 332.422 440.892 353.103C435.436 373.514 434.903 388.307 434.967 394.298H435.069V453.149C435.069 468.756 428.934 483.725 418.012 494.763C407.091 505.8 392.279 512 376.835 512H95.8569C95.0533 512 94.4009 511.34 94.4009 510.528V453.149C94.4009 393.266 44.9019 363.075 44.9019 294.252C44.9019 247.231 78.8842 228.057 93.5825 220.688H54.9009C39.7312 220.688 27.4323 207.515 27.4321 191.264V77.2402C27.4321 77.0461 27.5082 76.858 27.645 76.7197C27.7818 76.5815 27.9676 76.505 28.1597 76.5049H43.8716C44.2151 76.5049 44.5126 76.7515 44.5825 77.0898C47.337 90.2224 58.2962 100.045 71.3813 100.045H77.981L70.0337 64.6943C62.498 64.1388 56.5552 57.782 56.5552 50.0215C56.5554 41.8961 63.0702 35.3097 71.1069 35.3096C79.1438 35.3096 85.6595 41.8961 85.6597 50.0215C85.6597 55.4805 82.7183 60.2449 78.3511 62.7842L86.7271 100.045H95.9644V28.7852C90.0032 26.9453 85.6666 21.3418 85.6665 14.7129C85.6665 6.58745 92.1815 0.000242575 100.218 0Z" fill="#DC9949"/>
</svg>
