<svg width="155" height="40" viewBox="0 0 155 40" fill="none" xmlns="http://www.w3.org/2000/svg">
<path d="M5.68457 0C6.31245 0 6.82128 0.514607 6.82129 1.14941C6.82129 1.66668 6.4834 2.10377 6.01855 2.24805V7.81641H6.73828L7.39258 4.90332C7.05192 4.70484 6.82136 4.33424 6.82129 3.9082C6.82129 3.27339 7.3311 2.75879 7.95898 2.75879C8.58672 2.75897 9.0957 3.2735 9.0957 3.9082C9.0956 4.51454 8.63085 5.00954 8.04199 5.05273L7.4209 7.81641H9.22363C10.4083 7.81641 11.3691 8.84558 11.3691 10.1152V17.126C11.3691 17.1317 11.3681 17.138 11.3672 17.1436C11.3613 17.1978 11.2649 17.2424 11.2588 17.2451C10.4139 17.2851 5.00195 17.4737 5.00195 21.6094C5.00207 25.8188 8.6069 26.2154 9.05078 30.3916L17.5889 17.2412H15.0068C13.8222 17.2412 12.8623 16.212 12.8623 14.9424V6.26465C12.8623 6.24948 12.8682 6.23444 12.8789 6.22363C12.8896 6.21297 12.904 6.20703 12.9189 6.20703H14.1455C14.1723 6.20703 14.1957 6.22649 14.2012 6.25293C14.4164 7.27874 15.2722 8.0459 16.2939 8.0459H21.7295C22.9141 8.0459 23.875 9.07509 23.875 10.3447V17.126C23.875 17.1894 23.8235 17.2412 23.7607 17.2412H20.999L12.25 30.7227C18.9057 30.5091 25.7159 29.6724 28.6494 26.207C31.6994 22.1275 32.3677 18.4738 32.4902 17.4717H27.667C26.5774 17.4716 25.6936 16.4422 25.6934 15.1729V6.49414C25.6934 6.46244 25.7196 6.43652 25.751 6.43652H26.8701C26.8974 6.43652 26.9208 6.45651 26.9258 6.4834C27.1241 7.50892 27.9116 8.27539 28.8516 8.27539H33.7246C34.8143 8.27539 35.698 9.30476 35.6982 10.5742V17.4717H35.6924C35.6612 18.1128 35.4706 19.5784 34.334 22.0693C33.5944 23.6901 32.7199 25.9704 32.2881 27.5859C31.862 29.1807 31.8202 30.3366 31.8252 30.8047H31.833V35.4023C31.833 36.6216 31.3538 37.791 30.501 38.6533C29.6481 39.5156 28.4912 40 27.2852 40H5.34375C5.28099 40 5.22949 39.9482 5.22949 39.8848V35.4023C5.22949 30.7239 1.36426 28.3651 1.36426 22.9883C1.36436 19.3149 4.01823 17.8168 5.16602 17.2412H2.14551C0.960867 17.2412 0 16.212 0 14.9424V6.03418C6.24008e-05 6.01918 0.00608685 6.00487 0.0166016 5.99414C0.02725 5.98337 0.0416908 5.97661 0.0566406 5.97656H1.28418C1.31072 5.97677 1.33333 5.99632 1.33887 6.02246C1.55394 7.04832 2.40996 7.81622 3.43164 7.81641H3.94824L3.32617 5.05273C2.73804 5.00881 2.27454 4.51401 2.27441 3.9082C2.27441 3.27339 2.78325 2.75879 3.41113 2.75879C4.03897 2.75885 4.54785 3.27343 4.54785 3.9082C4.54776 4.33458 4.31767 4.70595 3.97656 4.9043L4.63086 7.81641H5.35254V2.24805C4.88678 2.10434 4.54785 1.66733 4.54785 1.14941C4.54786 0.51461 5.05669 4.95032e-06 5.68457 0ZM56.2256 10C57.406 10 58.5202 10.1348 59.5674 10.4043C60.624 10.6738 61.5571 11.0591 62.3662 11.5596L61.0098 15.9775H60.71L56.7969 11.459C55.5118 11.459 54.4695 11.7135 53.6699 12.2236C52.8702 12.7242 52.4707 13.4513 52.4707 14.4043C52.4708 15.0779 52.6325 15.6888 52.9561 16.2373C53.2893 16.786 53.8319 17.3502 54.584 17.9277C55.336 18.5052 56.4022 19.1985 57.7822 20.0068C59.6957 21.1234 61.1054 22.3264 62.0098 23.6162C62.9235 24.8963 63.3799 26.1578 63.3799 27.3994C63.3798 28.564 63.0606 29.5941 62.4229 30.4893C61.7945 31.3843 60.8902 32.0825 59.71 32.583C58.5391 33.0835 57.1631 33.333 55.583 33.333C52.9652 33.333 50.7706 32.9004 49 32.0342L50.1709 28.251H50.4707L54.6553 31.8896C56.1779 31.8896 57.3679 31.6349 58.2246 31.125C59.0907 30.6053 59.5242 29.8636 59.5244 28.9014C59.5244 28.2564 59.3391 27.6249 58.9678 27.0088C58.5966 26.3929 57.9824 25.7387 57.126 25.0459C56.2693 24.3529 55.1075 23.5874 53.6416 22.75C52.0996 21.8645 50.9709 20.8826 50.2568 19.8047C49.5524 18.7266 49.2002 17.5368 49.2002 16.2373C49.2003 15.0633 49.4857 14.0047 50.0566 13.0615C50.6373 12.1086 51.4612 11.3623 52.5273 10.8232C53.5935 10.2746 54.8263 10 56.2256 10ZM118.452 26.1572L125.149 10.4336H131.861V10.7217L129.947 12.3389V31.0381L131.861 32.6113V32.9004H122.722V32.6113L125.749 31.0381V13.2051L125.906 12.3389L119.266 27.9912L120.536 29.5938L117.21 33.333H116.924L109.655 16.1797L109.47 15.3135V31.0381L112.497 32.6113V32.9004H106.128V32.6113L108.027 31.0381V12.3389L106.128 10.7217V10.4336H111.783L118.452 26.1572ZM74.5898 10.7217L71.6191 12.3389V20.165H80.3584V12.3389L77.375 10.7217V10.4336H86.4141V10.7217L84.5576 12.3389V31.0381L86.4141 32.6113V32.9004H77.3887V32.6113L80.3584 31.0381V21.624H71.6191V31.0381L74.6045 32.6113V32.9004H65.5361V32.6113L67.4209 31.0381V12.3389L65.5645 10.7217V10.4336H74.5898V10.7217ZM102.265 14.8809H101.993L99.6797 11.8916H94.6533V21.335L101.75 20.3242L100.836 22.793H94.6533V31.4424H99.6514L103.992 28.4102H104.278L103.735 32.9004H88.5557V32.6113L90.4551 30.9941V12.3389L88.5557 10.7217V10.4336H103.907L102.265 14.8809ZM153.252 31.0381L154.979 32.6113V32.9004H145.455V32.626L148.626 31.0381L147.012 27.1104H138.772L137.173 31.0381L140.329 32.6113V32.9004H133.86V32.6113L135.603 31.0381L142.071 15.0684L140.8 13.4805L144.327 10H144.612L153.252 31.0381ZM139.329 25.7529H146.455L142.87 17.0322L139.329 25.7529Z" fill="#DC9949"/>
</svg>
